<svg xmlns="http://www.w3.org/2000/svg" viewBox="0 0 173.9 15.62"><g id="Layer_2" data-name="Layer 2"><g id="Layer_1-2" data-name="Layer 1"><path d="M6.86,10.5c-1,1.21-1.94,1.59-4.05,1.59H0V.74H2.36c2.13,0,3.4.39,4.46,1.61a6,6,0,0,1,1.23,4.1A6.42,6.42,0,0,1,6.86,10.5ZM5.23,3.22a2.27,2.27,0,0,0-2.13-1H1.9v8.32H3.15c2,0,2.8-1.33,2.8-3.91A5.77,5.77,0,0,0,5.23,3.22Z"/><path d="M11.84,8.43v.13c0,1.15.43,2.36,2.05,2.36A3,3,0,0,0,16,10.1l.7,1.1a4.47,4.47,0,0,1-3,1.1c-2.35,0-3.83-1.69-3.83-4.34a4.54,4.54,0,0,1,1-3.25,3.15,3.15,0,0,1,2.54-1.12,3.2,3.2,0,0,1,2.28.86c.72.65,1.08,1.67,1.08,3.6v.38ZM13.43,5c-1,0-1.57.81-1.57,2.15h3.06C14.92,5.76,14.33,5,13.43,5Z"/><path d="M22.6,12.25a3.21,3.21,0,0,1-2-.67c0,.07,0,.41,0,.82v2.77l-1.74.45V5.94a9.86,9.86,0,0,0-.16-2.07l1.66-.29a3.74,3.74,0,0,1,.13,1,2.82,2.82,0,0,1,2.21-1c1.67,0,3.13,1.26,3.13,4.15S24.71,12.25,22.6,12.25ZM22.42,5.1A2.34,2.34,0,0,0,20.66,6v4.14a2.36,2.36,0,0,0,1.54.74C23.42,10.83,24,9.92,24,8S23.6,5.1,22.42,5.1Z"/><path d="M33.7,12.43a1.91,1.91,0,0,1-1.13-1.11,2.85,2.85,0,0,1-2.28,1c-1.91,0-2.76-1.05-2.76-2.5C27.53,7.92,29,7,31.63,7h.56V6.51c0-1-.16-1.46-1.15-1.46a5,5,0,0,0-2.48,1l-.8-1.29a6.21,6.21,0,0,1,3.53-1.13A2.43,2.43,0,0,1,33.81,5a5.63,5.63,0,0,1,.13,2l0,2.38c0,1.11.08,1.47.72,1.92ZM31.83,8.17c-1.81,0-2.35.52-2.35,1.57A1.13,1.13,0,0,0,30.63,11a1.85,1.85,0,0,0,1.49-.87l0-2Z"/><path d="M40.59,5.36a1.56,1.56,0,0,0-.51-.11,1.63,1.63,0,0,0-1.56,1.23v5.61H36.71V6.23A6.64,6.64,0,0,0,36.42,4l1.66-.42a3,3,0,0,1,.31,1.31A2.6,2.6,0,0,1,40.5,3.56a1.31,1.31,0,0,1,.64.13Z"/><path d="M44.86,12.3a1.92,1.92,0,0,1-2.16-2.13V5h-.92V3.79h.92a16.81,16.81,0,0,1,.08-2l1.85-.44a23.45,23.45,0,0,0-.14,2.49h2L46,5H44.47V9.69c0,1,.23,1.33,1,1.33a2.21,2.21,0,0,0,.77-.16l.23,1.08A3.78,3.78,0,0,1,44.86,12.3Z"/><path d="M56.82,12.09V6.35c0-1-.21-1.25-.85-1.25a2.8,2.8,0,0,0-1.76,1v6H52.49V6.4c0-1-.21-1.28-.9-1.28a2.64,2.64,0,0,0-1.71.82v6.15H48.13v-6A5.13,5.13,0,0,0,47.83,4l1.64-.46a2.26,2.26,0,0,1,.3,1.06,3.11,3.11,0,0,1,2.19-1,2.17,2.17,0,0,1,2,1.22,3.41,3.41,0,0,1,2.48-1.22c1.36,0,2.16.71,2.16,2.43v6.07Z"/><path d="M62.87,8.43v.13c0,1.15.42,2.36,2.05,2.36A3,3,0,0,0,67,10.1l.7,1.1a4.47,4.47,0,0,1-3,1.1c-2.35,0-3.83-1.69-3.83-4.34a4.5,4.5,0,0,1,1-3.25,3.15,3.15,0,0,1,2.54-1.12,3.22,3.22,0,0,1,2.28.86c.72.65,1.08,1.67,1.08,3.6v.38ZM64.46,5c-1,0-1.58.81-1.58,2.15H66C66,5.76,65.36,5,64.46,5Z"/><path d="M74.5,12.09V6.58c0-1.13-.27-1.45-1-1.45a3,3,0,0,0-1.82.94v6H70V6a4.91,4.91,0,0,0-.31-2l1.64-.46a2.41,2.41,0,0,1,.3,1.18,3.88,3.88,0,0,1,2.54-1.15,2,2,0,0,1,2.16,2.3v6.2Z"/><path d="M81.23,12.3a1.92,1.92,0,0,1-2.16-2.13V5h-.92V3.79h.92a16.81,16.81,0,0,1,.08-2L81,1.3a23.45,23.45,0,0,0-.14,2.49h2L82.37,5H80.84V9.69c0,1,.23,1.33,1,1.33a2.21,2.21,0,0,0,.77-.16l.23,1.08A3.78,3.78,0,0,1,81.23,12.3Z"/><path d="M91.27,12.3C89,12.3,87.61,10.61,87.61,8S89,3.59,91.24,3.59c2.36,0,3.7,1.76,3.7,4.38S93.52,12.3,91.27,12.3Zm0-7.35c-1.15,0-1.64.87-1.64,2.89,0,2.41.61,3.12,1.69,3.12S93,10.09,93,8C93,5.66,92.3,5,91.25,5Z"/><path d="M100.94,1.66a2.1,2.1,0,0,0-1-.3c-.62,0-1,.43-1,1.17V3.79h2.16L100.63,5H98.94v7.05H97.15V5h-.77V3.79h.81a10,10,0,0,1,0-1.23A2.31,2.31,0,0,1,99.66,0a3.57,3.57,0,0,1,1.87.48Z"/><path d="M105.88,12.09V.74h6.3l-.25,1.54H107.8v3.1h3.46V6.94H107.8v3.54h4.54v1.61Z"/><path d="M119.15,12.09a1.87,1.87,0,0,1-.15-.64,2.73,2.73,0,0,1-2,.82c-2.11,0-3.39-1.66-3.39-4.25S115,3.64,117,3.64a2.33,2.33,0,0,1,1.79.76c0-.13,0-.73,0-1.37V0l1.79.28V9.2a9.45,9.45,0,0,0,.26,2.89Zm-.4-6.33a2,2,0,0,0-1.51-.68c-1.15,0-1.67.92-1.67,2.92,0,1.84.36,2.76,1.72,2.76a1.72,1.72,0,0,0,1.46-.79Z"/><path d="M128.85,12.35a1.85,1.85,0,0,1-.72-1,3,3,0,0,1-2.36,1,2.64,2.64,0,0,1-2.07-.82,2.91,2.91,0,0,1-.46-2V3.92L125,3.59V9.15c0,1,.15,1.79,1.22,1.79a2,2,0,0,0,1.62-1.08V3.92l1.74-.33V9.84a2.18,2.18,0,0,0,.51,1.66Z"/><path d="M135.41,12.3c-2.26,0-3.53-1.59-3.53-4.26,0-3,1.81-4.46,3.66-4.46a3,3,0,0,1,2.3.9l-.9,1.2a2,2,0,0,0-1.4-.64,1.41,1.41,0,0,0-1.31.83,5.55,5.55,0,0,0-.35,2.32,3.32,3.32,0,0,0,.56,2.26,1.48,1.48,0,0,0,1.1.47,2.36,2.36,0,0,0,1.67-.82l.86,1.1A3.46,3.46,0,0,1,135.41,12.3Z"/><path d="M145.38,12.43a1.93,1.93,0,0,1-1.13-1.11,2.84,2.84,0,0,1-2.28,1c-1.9,0-2.76-1.05-2.76-2.5,0-1.92,1.45-2.88,4.1-2.88h.56V6.51c0-1-.16-1.46-1.15-1.46a4.93,4.93,0,0,0-2.47,1l-.81-1.29A6.21,6.21,0,0,1,143,3.58,2.44,2.44,0,0,1,145.5,5a6.17,6.17,0,0,1,.13,2l0,2.38c0,1.11.09,1.47.73,1.92Zm-1.87-4.26c-1.8,0-2.34.52-2.34,1.57,0,.79.42,1.28,1.14,1.28a1.88,1.88,0,0,0,1.5-.87l0-2Z"/><path d="M150.56,12.3a1.92,1.92,0,0,1-2.16-2.13V5h-.92V3.79h.92a16.81,16.81,0,0,1,.08-2l1.85-.44a23.31,23.31,0,0,0-.15,2.49h2L151.69,5h-1.52V9.69c0,1,.23,1.33,1,1.33a2.26,2.26,0,0,0,.78-.16l.23,1.08A3.82,3.82,0,0,1,150.56,12.3Z"/><path d="M154.89,2.56a1.18,1.18,0,0,1-1.17-1.2,1.19,1.19,0,1,1,1.17,1.2Zm-.9,9.53V3.92l1.82-.33v8.5Z"/><path d="M161.68,12.3C159.43,12.3,158,10.61,158,8s1.43-4.37,3.63-4.37c2.36,0,3.7,1.76,3.7,4.38S163.93,12.3,161.68,12.3Zm0-7.35c-1.15,0-1.64.87-1.64,2.89,0,2.41.61,3.12,1.69,3.12s1.66-.87,1.66-3C163.37,5.66,162.71,5,161.66,5Z"/><path d="M172.11,12.09V6.58c0-1.13-.26-1.45-1-1.45a3,3,0,0,0-1.82.94v6h-1.78V6a4.91,4.91,0,0,0-.31-2l1.64-.46a2.41,2.41,0,0,1,.3,1.18,3.88,3.88,0,0,1,2.54-1.15,2.05,2.05,0,0,1,2.17,2.3v6.2Z"/></g></g></svg>